<svg width="187" height="198" viewBox="0 0 187 198" fill="none" xmlns="http://www.w3.org/2000/svg">
<g clip-path="url(#clip0_156_226)">
<path d="M122.18 0H0V198H156.45V34.2936L122.18 0Z" fill="#E9ECF0"/>
<path d="M122.18 34.2936H156.45L122.18 0V34.2936Z" fill="#D3D6DD"/>
<path d="M185.338 193.584L185.239 193.683C182.33 196.594 176.612 195.604 172.477 191.466L122.517 141.471L133.162 130.818L183.122 180.813C187.257 184.952 188.247 190.674 185.338 193.584Z" fill="#2F3945"/>
<path d="M138.227 114.702C138.227 133.67 122.853 149.055 103.898 149.055C84.9423 149.055 69.5684 133.67 69.5684 114.702C69.5684 95.7332 84.9423 80.3486 103.898 80.3486C122.853 80.3486 138.227 95.7332 138.227 114.702Z" fill="#B2B6BA"/>
<path d="M116.145 92.6244C122.477 92.6244 128.393 94.3668 133.478 97.3566C127.522 87.1992 116.521 80.3682 103.898 80.3682C84.9423 80.3682 69.5684 95.7528 69.5684 114.721C69.5684 127.354 76.3946 138.362 86.545 144.322C83.5573 139.234 81.8161 133.313 81.8161 126.977C81.8161 108.009 97.19 92.6244 116.145 92.6244Z" fill="#8D9299"/>
<path d="M133.478 97.3567C128.393 94.3669 122.477 92.6245 116.145 92.6245C97.1899 92.6245 81.8159 108.009 81.8159 126.978C81.8159 133.314 83.5571 139.234 86.5448 144.322C91.6299 147.312 97.546 149.055 103.878 149.055C122.833 149.055 138.207 133.67 138.207 114.702C138.207 108.366 136.466 102.445 133.478 97.3567Z" fill="#B2B6BA"/>
<path d="M116.145 92.6244C122.477 92.6244 128.393 94.3668 133.478 97.3566C127.522 87.1992 116.521 80.3682 103.898 80.3682C84.9423 80.3682 69.5684 95.7528 69.5684 114.721C69.5684 127.354 76.3946 138.362 86.545 144.322C83.5573 139.234 81.8161 133.313 81.8161 126.977C81.8161 108.009 97.19 92.6244 116.145 92.6244Z" fill="#F1F1F2"/>
<path d="M133.478 97.3567C128.393 94.3669 122.477 92.6245 116.145 92.6245C97.1899 92.6245 81.8159 108.009 81.8159 126.978C81.8159 133.314 83.5571 139.234 86.5448 144.322C91.6299 147.312 97.546 149.055 103.878 149.055C122.833 149.055 138.207 133.67 138.207 114.702C138.207 108.366 136.466 102.445 133.478 97.3567Z" fill="white"/>
<path d="M103.898 72.0918C80.372 72.0918 61.3179 91.179 61.3179 114.701C61.3179 138.224 80.3918 157.311 103.898 157.311C127.404 157.311 146.478 138.224 146.478 114.701C146.478 91.179 127.404 72.0918 103.898 72.0918ZM103.898 149.054C97.5663 149.054 91.6502 147.312 86.5651 144.322C76.4148 138.362 69.5885 127.354 69.5885 114.721C69.5885 95.7528 84.9625 80.3682 103.918 80.3682C116.541 80.3682 127.543 87.1992 133.498 97.3566C136.486 102.445 138.227 108.365 138.227 114.701C138.227 133.67 122.853 149.054 103.898 149.054Z" fill="#2F3945"/>
</g>
<defs>
<clipPath id="clip0_156_226">
<rect width="187" height="198" fill="white"/>
</clipPath>
</defs>
</svg>
