<svg width="22" height="20" viewBox="0 0 22 20" fill="none" xmlns="http://www.w3.org/2000/svg">
<path fill-rule="evenodd" clip-rule="evenodd" d="M13.6962 14.5727C12.2619 15.6161 10.4696 16.2358 8.52536 16.2358C3.81694 16.2358 0 12.6013 0 8.1179C0 3.63451 3.81694 0 8.52536 0C13.2338 0 17.0507 3.63451 17.0507 8.1179C17.0507 9.96947 16.3997 11.6763 15.3038 13.0421L20.7627 18.24C21.0843 18.5463 21.0843 19.0428 20.7626 19.349L20.3198 19.7708C19.9981 20.077 19.4767 20.077 19.1551 19.7708L13.6962 14.5727ZM14.7773 8.1179C14.7773 11.4057 11.9782 14.071 8.52536 14.071C5.07252 14.071 2.27343 11.4057 2.27343 8.1179C2.27343 4.83008 5.07252 2.16477 8.52536 2.16477C11.9782 2.16477 14.7773 4.83008 14.7773 8.1179Z" fill="black"/>
</svg>
