<svg width="143" height="25" viewBox="0 0 143 25" fill="none" xmlns="http://www.w3.org/2000/svg">
<g clip-path="url(#clip0_1_128)">
<path fill-rule="evenodd" clip-rule="evenodd" d="M4.52028 0.298384H8.78764C9.09189 0.298384 9.51863 0.859422 9.29341 1.06633L5.49229 4.55988L9.08399 4.26146C10.139 4.16994 8.68886 3.0797 8.15544 2.94441C8.0211 2.9086 9.40799 2.29982 10.1982 2.3595C11.269 2.43908 12.0158 2.96431 12.8416 3.65267C13.1775 2.71761 13.6991 1.94171 14.4142 1.32894C14.11 1.08225 13.8057 0.580892 14.2799 0.190951C14.8686 -0.286528 15.2638 0.270531 15.4495 0.35409C16.0303 0.246657 16.2634 0.11535 16.9075 0.15514C17.5476 0.19493 18.1442 0.736073 18.5986 1.10612C18.9147 1.06235 19.3217 0.915128 19.618 1.05837C19.9697 1.22549 20.2305 1.95364 19.8551 2.27594C19.5825 2.5107 19.1992 2.46295 19.1834 2.61018C19.1716 2.73751 20.104 2.59426 20.104 2.7574C20.104 2.95237 19.1716 2.9285 18.164 4.04659C18.8001 4.77873 19.4639 5.49893 20.2779 5.96447C21.0682 5.09705 21.3803 3.50943 22.5459 3.46566C23.2572 3.43781 23.7392 4.13015 23.8696 4.66334C23.9447 4.96574 23.0398 5.34374 23.0952 5.65013C23.1584 5.9963 23.8222 6.08384 23.9012 6.42603C23.9447 6.621 23.3717 6.72843 23.3875 6.92738C23.4192 7.28151 23.9368 7.37701 23.9289 7.73114C23.921 7.99375 23.3599 8.15689 23.348 8.41951C23.3283 8.76966 23.8775 8.94871 23.8143 9.2909C23.7313 9.72461 23.273 9.97529 23.1979 10.413C22.9924 11.6345 22.6724 12.3507 21.7557 12.7845C21.2064 13.0431 20.7007 13.2341 20.108 13.1267C20.5229 14.4875 19.8472 15.6931 18.4169 16.7913C21.9651 18.371 23.2769 21.3552 23.5733 24.9721H19.1795C19.1044 18.0964 16.5163 16.6719 16.5124 16.2143C16.5124 15.7647 18.9068 15.2952 18.812 13.0152C18.7606 11.734 14.4379 9.95539 14.1416 6.68466C14.1297 6.53346 13.6833 6.54142 13.6833 6.6966V14.4517C13.6358 16.4969 11.6918 18.2158 9.75175 18.7529C11.755 20.4957 12.3398 22.5051 12.162 24.9721H8.77974C9.52653 21.395 7.36519 17.9094 5.43698 15.908L7.82749 15.9199C8.12778 15.9199 8.6533 15.6692 8.6533 15.3668V13.9384H4.97863V15.7687C4.16072 15.2872 3.42974 15.3151 2.65529 15.2156L2.69875 7.93009H1.17752C0.896981 6.83587 0.501855 6.02813 -0.00390625 5.5029L3.03856 5.07715C3.71423 3.78398 5.354 1.66716 5.06556 1.20161L4.51633 0.306342L4.52028 0.298384ZM4.57165 7.86245L10.949 7.8903L10.9766 16.0472C10.9766 16.6242 12.1383 15.2952 12.1344 14.7182L12.1067 7.62371C9.51468 7.33324 10.0916 5.2761 9.73595 5.39149L4.22789 7.19795C3.99082 7.27356 4.32272 7.86245 4.57165 7.86245ZM15.9513 6.96319L20.0803 11.2446C20.6612 11.8454 21.5384 10.8387 21.6846 10.0588C21.8387 9.21928 22.1508 9.54158 22.4511 9.0084C22.5538 8.82536 21.9414 8.81343 21.9216 8.54285C21.9058 8.33197 22.4827 8.37574 22.4827 8.00967C22.4827 7.62769 22.0165 7.83061 22.0204 7.66748C22.0323 7.23377 22.376 7.12633 22.4471 6.94728C22.542 6.70058 21.8861 6.60906 21.6964 6.7921C21.1551 7.31732 20.922 9.22724 20.3648 8.71793L17.1406 5.76154C16.2595 4.9538 15.0741 6.05996 15.9473 6.96717L15.9513 6.96319ZM4.99048 11.7181V12.4622H8.54662V11.7181H4.99048ZM4.99048 9.29886V10.0429H8.54662V9.29886H4.99048ZM16.6704 0.927064C16.4531 0.927064 16.2753 1.09418 16.2753 1.29711C16.2753 1.50004 16.4531 1.67114 16.6704 1.67114C16.8877 1.67114 17.0655 1.50402 17.0655 1.29711C17.0655 1.0902 16.8877 0.927064 16.6704 0.927064Z" fill="#8B8B8B"/>
<path fill-rule="evenodd" clip-rule="evenodd" d="M2.62356 16.2581C3.97884 19.0275 3.87611 21.204 2.04272 24.9999H6.52345C7.40458 17.5393 2.2798 15.5578 2.62356 16.2581Z" fill="#8B8B8B"/>
<path fill-rule="evenodd" clip-rule="evenodd" d="M12.4543 18.0128C13.8333 20.1694 14.1573 20.8578 14.1415 24.9999H17.8834C17.8122 19.0275 12.0355 17.3563 12.4543 18.0128Z" fill="#8B8B8B"/>
<path fill-rule="evenodd" clip-rule="evenodd" d="M31.543 6.27095V19.0196C31.543 19.3976 31.946 19.8353 32.3214 19.8313L39.0187 19.8035C40.7652 19.7955 44.5861 17.3405 44.5229 13.1904C44.4517 8.52703 40.4017 6.26697 37.1854 6.26697H31.543V6.27095ZM33.8505 7.47658L37.2407 7.42087C39.5601 7.38109 41.7846 9.65707 41.8281 12.9954C41.8716 16.5606 39.9157 18.7411 37.7978 18.7411H34.7949C34.4353 18.7411 33.8505 18.57 33.8505 18.2079V7.47658Z" fill="#8B8B8B"/>
<path fill-rule="evenodd" clip-rule="evenodd" d="M50.106 6.271L44.187 19.8075H45.9374L48.0553 15.0168H52.8008L54.4958 18.8008C54.7053 19.2664 55.4362 19.8115 55.942 19.8115H57.4988L51.5245 6.27498H50.106V6.271ZM48.5571 13.7953L50.3786 9.80036L52.2831 13.8032L48.5611 13.7953H48.5571Z" fill="#8B8B8B"/>
<path fill-rule="evenodd" clip-rule="evenodd" d="M58.8383 6.271H67.8946L67.9262 7.46071H61.1735V12.2753H67.0688V13.4053H61.138V18.1881C61.138 18.4308 61.4541 18.6536 61.6991 18.6536H68.6493V19.8075H60.4465C59.7432 19.8075 58.7988 19.1948 58.7988 18.4865L58.8304 6.271H58.8383Z" fill="#8B8B8B"/>
<path fill-rule="evenodd" clip-rule="evenodd" d="M69.6016 6.271L74.509 19.0794C74.7066 19.5927 75.2084 20.1935 75.7458 20.1656C76.2831 20.1378 76.5163 19.6165 76.702 19.1987L78.8949 14.2887L80.8113 19.2385C80.9772 19.6722 81.3961 20.1855 81.8505 20.1656C82.3049 20.1457 82.9371 19.4773 83.1662 18.9202L88.3938 6.271H86.6394L82.6091 16.306L78.2983 6.271H75.7063L78.1007 12.522L76.3068 16.4254L71.996 6.271H69.6016Z" fill="#8B8B8B"/>
<path fill-rule="evenodd" clip-rule="evenodd" d="M94.4668 6.271C98.1573 6.271 101.204 9.29901 101.31 12.904C101.417 16.5089 99.6311 19.8075 94.8382 19.8075C90.0454 19.8075 87.6272 16.6402 87.6272 12.904C87.6272 9.1677 90.7803 6.271 94.4708 6.271H94.4668ZM94.4668 7.41695C92.1395 7.41695 90.1481 9.82026 90.1481 12.9239C90.1481 16.0275 91.6733 18.6576 94.696 18.6576C97.7187 18.6576 98.8448 15.92 98.7776 12.9239C98.7105 9.92769 96.7902 7.41695 94.4629 7.41695H94.4668Z" fill="#8B8B8B"/>
<path fill-rule="evenodd" clip-rule="evenodd" d="M109.414 6.271C113.105 6.271 116.151 9.29901 116.258 12.904C116.365 16.5089 114.579 19.8075 109.786 19.8075C104.993 19.8075 102.575 16.6402 102.575 12.904C102.575 9.1677 105.728 6.271 109.418 6.271H109.414ZM109.414 7.41695C107.087 7.41695 105.096 9.82026 105.096 12.9239C105.096 16.0275 106.621 18.6576 109.644 18.6576C112.666 18.6576 113.792 15.92 113.725 12.9239C113.658 9.92769 111.738 7.41695 109.41 7.41695H109.414Z" fill="#8B8B8B"/>
<path fill-rule="evenodd" clip-rule="evenodd" d="M118.048 19.8035V6.271H119.68C120.217 6.271 120.739 6.67287 121.071 7.09863L127.894 15.9758V6.271H129.052V19.2107C129.052 19.4773 128.815 20.1537 128.527 20.1656C128.301 20.1736 127.969 19.6643 127.736 19.3698L119.261 8.60666V19.8035H118.052H118.048Z" fill="#8B8B8B"/>
<path fill-rule="evenodd" clip-rule="evenodd" d="M137.579 6.271C139.732 6.271 142.933 7.55223 143 9.98737H141.175C141.194 8.43159 139.073 7.42092 137.579 7.42092C135.252 7.42092 133.26 9.82424 133.26 12.9278C133.26 16.0315 134.785 18.6616 137.808 18.6616C138.666 18.6616 141.001 18.6337 141.005 17.4002L141.013 14.2847L137.875 14.217L137.867 13.095H142.976L142.996 17.7345C141.961 18.9958 140.325 19.8075 137.942 19.8075C133.146 19.8075 130.731 16.6402 130.731 12.904C130.731 9.1677 133.885 6.271 137.575 6.271H137.579Z" fill="#8B8B8B"/>
</g>
<defs>
<clipPath id="clip0_1_128">
<rect width="143" height="25" fill="white"/>
</clipPath>
</defs>
</svg>
