<svg width="214" height="37" viewBox="0 0 214 37" fill="none" xmlns="http://www.w3.org/2000/svg">
<path fill-rule="evenodd" clip-rule="evenodd" d="M6.74274 0.441966H13.1027C13.5561 0.441966 14.1921 1.27229 13.8565 1.57851L8.19139 6.74893L13.5444 6.30726C15.1167 6.17182 12.9555 4.55827 12.1605 4.35805C11.9603 4.30505 14.0272 3.40406 15.205 3.49239C16.8009 3.61017 17.9139 4.3875 19.1447 5.40627C19.6452 4.02239 20.4225 2.87406 21.4884 1.96718C21.035 1.60207 20.5815 0.860074 21.2882 0.282967C22.1656 -0.423696 22.7545 0.400744 23.0313 0.52441C23.897 0.36541 24.2444 0.171078 25.2043 0.229967C26.1583 0.288855 27.0475 1.08974 27.7247 1.6374C28.1958 1.57263 28.8024 1.35474 29.244 1.56674C29.7682 1.81407 30.1568 2.89173 29.5974 3.36873C29.191 3.71617 28.6198 3.6455 28.5963 3.86339C28.5786 4.05183 29.9684 3.83983 29.9684 4.08128C29.9684 4.36983 28.5786 4.3345 27.0769 5.98927C28.0251 7.07281 29.0144 8.1387 30.2275 8.82769C31.4053 7.54392 31.8705 5.19427 33.6077 5.12949C34.6677 5.08827 35.3861 6.11293 35.5804 6.90204C35.6923 7.34959 34.3438 7.90903 34.4262 8.36247C34.5205 8.8748 35.5098 9.00436 35.6276 9.5108C35.6923 9.79935 34.8385 9.95835 34.862 10.2528C34.9091 10.7769 35.6806 10.9182 35.6688 11.4423C35.657 11.831 34.8208 12.0725 34.8031 12.4611C34.7737 12.9793 35.5922 13.2443 35.498 13.7508C35.3743 14.3927 34.6912 14.7637 34.5793 15.4114C34.2731 17.2193 33.7961 18.2793 32.4299 18.9212C31.6114 19.304 30.8576 19.5866 29.9743 19.4276C30.5926 21.4416 29.5856 23.2259 27.4538 24.8513C32.742 27.1891 34.6971 31.6058 35.1388 36.9587H28.5904C28.4785 26.7828 24.6213 24.6746 24.6154 23.9974C24.6154 23.3319 28.1841 22.6371 28.0427 19.2627C27.9662 17.3665 21.5238 14.7342 21.0821 9.89358C21.0644 9.6698 20.399 9.68158 20.399 9.91124V21.3886C20.3283 24.4155 17.431 26.9595 14.5396 27.7545C17.5252 30.3338 18.3968 33.3077 18.1318 36.9587H13.0909C14.2039 31.6647 10.9827 26.506 8.10895 23.5439L11.6717 23.5616C12.1193 23.5616 12.9025 23.1906 12.9025 22.7431V20.629H7.42584V23.3378C6.20685 22.6253 5.11741 22.6665 3.9632 22.5193L4.02798 11.7368H1.76077C1.34266 10.1174 0.753773 8.92191 0 8.14459L4.53442 7.51448C5.54141 5.6006 7.98528 2.46773 7.5554 1.77874L6.73685 0.453743L6.74274 0.441966ZM6.81929 11.6367L16.3239 11.6779L16.3651 23.75C16.3651 24.6039 18.0964 22.6371 18.0906 21.7832L18.0493 11.2833C14.1862 10.8535 15.046 7.80892 14.516 7.9797L6.30696 10.6532C5.95363 10.7651 6.44829 11.6367 6.81929 11.6367ZM23.7792 10.3058L29.933 16.6422C30.7987 17.5314 32.106 16.0415 32.3239 14.8873C32.5536 13.6448 33.0188 14.1218 33.4664 13.3327C33.6195 13.0618 32.7067 13.0441 32.6772 12.6437C32.6537 12.3316 33.5135 12.3963 33.5135 11.8546C33.5135 11.2892 32.8186 11.5896 32.8245 11.3481C32.8421 10.7062 33.3545 10.5472 33.4605 10.2822C33.6018 9.91713 32.6242 9.78169 32.3416 10.0526C31.5348 10.8299 31.1874 13.6566 30.357 12.9028L25.5517 8.52736C24.2385 7.33192 22.4719 8.96903 23.7733 10.3117L23.7792 10.3058ZM7.44351 17.343V18.4442H12.7435V17.343H7.44351ZM7.44351 13.7626V14.8638H12.7435V13.7626H7.44351ZM24.851 1.3724C24.5271 1.3724 24.2621 1.61974 24.2621 1.92007C24.2621 2.2204 24.5271 2.47362 24.851 2.47362C25.1748 2.47362 25.4398 2.22629 25.4398 1.92007C25.4398 1.61385 25.1748 1.3724 24.851 1.3724Z" fill="#F49C00"/>
<path fill-rule="evenodd" clip-rule="evenodd" d="M3.91644 24.0622C5.93632 28.1608 5.78321 31.382 3.05078 37H9.72874C11.042 25.9584 3.40411 23.0257 3.91644 24.0622Z" fill="#F49C00"/>
<path fill-rule="evenodd" clip-rule="evenodd" d="M18.5675 26.6592C20.6227 29.8509 21.1056 30.8697 21.0821 37H26.6588C26.5528 28.1608 17.9433 25.6875 18.5675 26.6592Z" fill="#F49C00"/>
<path fill-rule="evenodd" clip-rule="evenodd" d="M47.0156 9.28116V28.149C47.0156 28.7085 47.6163 29.3563 48.1757 29.3504L58.1573 29.3091C60.7602 29.2974 66.4547 25.6639 66.3605 19.5219C66.2545 12.6201 60.2184 9.27527 55.4249 9.27527H47.0156V9.28116ZM50.4547 11.0655L55.5074 10.983C58.9641 10.9241 62.2795 14.2926 62.3443 19.2333C62.4091 24.5097 59.4941 27.7368 56.3377 27.7368H51.8621C51.3263 27.7368 50.4547 27.4836 50.4547 26.9477V11.0655Z" fill="#616060"/>
<path fill-rule="evenodd" clip-rule="evenodd" d="M74.6809 9.28113L65.8594 29.315H68.4681L71.6246 22.2248H78.6971L81.2234 27.8251C81.5355 28.5141 82.6249 29.3209 83.3787 29.3209H85.6989L76.795 9.28702H74.6809V9.28113ZM72.3724 20.4169L75.0872 14.5045L77.9256 20.4287L72.3783 20.4169H72.3724Z" fill="#616060"/>
<path fill-rule="evenodd" clip-rule="evenodd" d="M87.6956 9.28113H101.193L101.24 11.0419H91.1759V18.1674H99.9621V19.8398H91.1229V26.9182C91.1229 27.2775 91.594 27.6072 91.9591 27.6072H102.318V29.315H90.0924C89.0442 29.315 87.6367 28.4081 87.6367 27.3599L87.6838 9.28113H87.6956Z" fill="#616060"/>
<path fill-rule="evenodd" clip-rule="evenodd" d="M103.736 9.28113L111.05 28.2373C111.345 28.997 112.093 29.8862 112.893 29.845C113.694 29.8038 114.042 29.0323 114.319 28.414L117.587 21.1472L120.443 28.4729C120.69 29.1148 121.315 29.8744 121.992 29.845C122.669 29.8156 123.611 28.8262 123.953 28.0018L131.744 9.28113H129.129L123.122 24.1328L116.698 9.28113H112.835L116.403 18.5325L113.73 24.3095L107.305 9.28113H103.736Z" fill="#616060"/>
<path fill-rule="evenodd" clip-rule="evenodd" d="M140.797 9.28113C146.297 9.28113 150.838 13.7625 150.997 19.0978C151.156 24.4331 148.494 29.315 141.351 29.315C134.207 29.315 130.604 24.6275 130.604 19.0978C130.604 13.5682 135.303 9.28113 140.803 9.28113H140.797ZM140.797 10.9771C137.329 10.9771 134.361 14.534 134.361 19.1273C134.361 23.7206 136.634 27.6131 141.139 27.6131C145.644 27.6131 147.322 23.5616 147.222 19.1273C147.122 14.693 144.26 10.9771 140.791 10.9771H140.797Z" fill="#616060"/>
<path fill-rule="evenodd" clip-rule="evenodd" d="M163.073 9.28113C168.573 9.28113 173.113 13.7625 173.272 19.0978C173.431 24.4331 170.769 29.315 163.626 29.315C156.483 29.315 152.879 24.6275 152.879 19.0978C152.879 13.5682 157.578 9.28113 163.078 9.28113H163.073ZM163.073 10.9771C159.604 10.9771 156.636 14.534 156.636 19.1273C156.636 23.7206 158.909 27.6131 163.414 27.6131C167.919 27.6131 169.597 23.5616 169.497 19.1273C169.397 14.693 166.535 10.9771 163.067 10.9771H163.073Z" fill="#616060"/>
<path fill-rule="evenodd" clip-rule="evenodd" d="M175.939 29.3091V9.28113H178.372C179.172 9.28113 179.95 9.8759 180.444 10.506L190.614 23.644V9.28113H192.34V28.4317C192.34 28.8262 191.987 29.8273 191.557 29.845C191.221 29.8568 190.726 29.103 190.379 28.6672L177.747 12.7379V29.3091H175.945H175.939Z" fill="#616060"/>
<path fill-rule="evenodd" clip-rule="evenodd" d="M205.049 9.28113C208.259 9.28113 213.029 11.1773 213.129 14.7813H210.408C210.437 12.4788 207.275 10.983 205.049 10.983C201.581 10.983 198.613 14.5399 198.613 19.1332C198.613 23.7265 200.886 27.619 205.391 27.619C206.669 27.619 210.149 27.5778 210.155 25.7523L210.167 21.1413L205.491 21.0412L205.479 19.3805H213.093L213.123 26.2469C211.58 28.1137 209.142 29.315 205.591 29.315C198.442 29.315 194.844 24.6275 194.844 19.0978C194.844 13.5682 199.543 9.28113 205.043 9.28113H205.049Z" fill="#616060"/>
</svg>
